<svg width="25" height="25" viewBox="0 0 25 25" fill="none" xmlns="http://www.w3.org/2000/svg">
<mask id="mask0_38_92" style="mask-type:alpha" maskUnits="userSpaceOnUse" x="0" y="0" width="25" height="25">
<rect x="0.65625" y="0.809509" width="24" height="24" fill="#D9D9D9"/>
</mask>
<g mask="url(#mask0_38_92)">
<path d="M12.7563 22.8095C11.3563 22.8095 10.0437 22.5428 8.81875 22.0095C7.59375 21.4762 6.52708 20.7553 5.61875 19.847C4.71042 18.9387 3.98958 17.872 3.45625 16.647C2.92292 15.422 2.65625 14.1095 2.65625 12.7095C2.65625 10.2762 3.43125 8.13034 4.98125 6.27201C6.53125 4.41368 8.50625 3.25951 10.9062 2.80951C10.6062 4.45951 10.6979 6.07201 11.1813 7.64701C11.6646 9.22201 12.4979 10.6012 13.6813 11.7845C14.8646 12.9678 16.2438 13.8012 17.8188 14.2845C19.3938 14.7678 21.0063 14.8595 22.6562 14.5595C22.2229 16.9595 21.0729 18.9345 19.2063 20.4845C17.3396 22.0345 15.1896 22.8095 12.7563 22.8095ZM12.7563 20.8095C14.2229 20.8095 15.5813 20.4428 16.8313 19.7095C18.0813 18.9762 19.0646 17.9678 19.7812 16.6845C18.3479 16.5512 16.9896 16.1887 15.7063 15.597C14.4229 15.0053 13.2729 14.2012 12.2563 13.1845C11.2396 12.1678 10.4313 11.0178 9.83125 9.73451C9.23125 8.45118 8.87292 7.09284 8.75625 5.65951C7.47292 6.37618 6.46875 7.36368 5.74375 8.62201C5.01875 9.88034 4.65625 11.2428 4.65625 12.7095C4.65625 14.9595 5.44375 16.872 7.01875 18.447C8.59375 20.022 10.5063 20.8095 12.7563 20.8095Z" fill="#1C1B1F"/>
</g>
</svg>
