<svg width="30" height="30" viewBox="0 0 30 30" fill="none" xmlns="http://www.w3.org/2000/svg">
<path d="M13.6666 5.66665V0.333313H16.3333V5.66665H13.6666ZM22.5333 9.33331L20.6999 7.49998L24.4333 3.66665L26.2999 5.56665L22.5333 9.33331ZM24.3333 16.3333V13.6666H29.6666V16.3333H24.3333ZM13.6666 29.6666V24.3333H16.3333V29.6666H13.6666ZM7.46659 9.26665L3.66659 5.56665L5.56659 3.69998L9.33325 7.46665L7.46659 9.26665ZM24.3999 26.3333L20.6999 22.5L22.4999 20.7L26.2999 24.3666L24.3999 26.3333ZM0.333252 16.3333V13.6666H5.66659V16.3333H0.333252ZM5.56659 26.3333L3.69992 24.4333L7.43325 20.7L8.39992 21.6L9.36659 22.5333L5.56659 26.3333ZM14.9999 23C12.7777 23 10.8888 22.2222 9.33325 20.6666C7.7777 19.1111 6.99992 17.2222 6.99992 15C6.99992 12.7778 7.7777 10.8889 9.33325 9.33331C10.8888 7.77776 12.7777 6.99998 14.9999 6.99998C17.2221 6.99998 19.111 7.77776 20.6666 9.33331C22.2221 10.8889 22.9999 12.7778 22.9999 15C22.9999 17.2222 22.2221 19.1111 20.6666 20.6666C19.111 22.2222 17.2221 23 14.9999 23ZM14.9999 20.3333C16.4666 20.3333 17.7221 19.8111 18.7666 18.7666C19.811 17.7222 20.3333 16.4666 20.3333 15C20.3333 13.5333 19.811 12.2778 18.7666 11.2333C17.7221 10.1889 16.4666 9.66665 14.9999 9.66665C13.5333 9.66665 12.2777 10.1889 11.2333 11.2333C10.1888 12.2778 9.66659 13.5333 9.66659 15C9.66659 16.4666 10.1888 17.7222 11.2333 18.7666C12.2777 19.8111 13.5333 20.3333 14.9999 20.3333Z" fill="#27272A"/>
</svg>
